<svg width="1600" height="1100" viewBox="0 0 1600 1100" fill="none" xmlns="http://www.w3.org/2000/svg">
  <rect width="1600" height="1100" fill="#F5F1E8"/>
  <rect x="32" y="24" width="1536" height="1052" rx="28" fill="#FFFDF8" stroke="#1B1B1B" stroke-width="3"/>

  <rect x="64" y="48" width="1472" height="120" rx="22" fill="#F0E8D8" stroke="#1B1B1B" stroke-width="3"/>
  <text x="96" y="92" font-family="Georgia, serif" font-size="20" fill="#4D4A43" letter-spacing="2">OWNER-ONLY 1:1 COACHING</text>
  <text x="96" y="132" font-family="Georgia, serif" font-size="42" font-weight="700" fill="#111111">Mission Control</text>
  <text x="96" y="156" font-family="Arial, sans-serif" font-size="18" fill="#4D4A43">A persistent brain for the client relationship: memory, commitments, proof, and next actions.</text>

  <rect x="1098" y="74" width="180" height="56" rx="14" fill="#FFFDF8" stroke="#1B1B1B" stroke-width="2.5"/>
  <text x="1138" y="109" font-family="Arial, sans-serif" font-size="18" font-weight="700" fill="#111111">Next Call</text>
  <text x="1114" y="132" font-family="Arial, sans-serif" font-size="14" fill="#4D4A43">Apr 3, 2026</text>

  <rect x="1296" y="74" width="208" height="56" rx="14" fill="#111111"/>
  <text x="1349" y="109" font-family="Arial, sans-serif" font-size="18" font-weight="700" fill="#FFFDF8">Start New Call</text>
  <text x="1344" y="132" font-family="Arial, sans-serif" font-size="14" fill="#D7D2C6">Create a new session</text>

  <rect x="64" y="192" width="284" height="114" rx="18" fill="#FFFDF8" stroke="#1B1B1B" stroke-width="2.5"/>
  <text x="88" y="228" font-family="Arial, sans-serif" font-size="16" fill="#4D4A43">Open Commitments</text>
  <text x="88" y="278" font-family="Georgia, serif" font-size="52" font-weight="700" fill="#111111">7</text>
  <text x="88" y="298" font-family="Arial, sans-serif" font-size="15" fill="#4D4A43">3 overdue, 4 active</text>

  <rect x="366" y="192" width="284" height="114" rx="18" fill="#FFFDF8" stroke="#1B1B1B" stroke-width="2.5"/>
  <text x="390" y="228" font-family="Arial, sans-serif" font-size="16" fill="#4D4A43">Last Session</text>
  <text x="390" y="278" font-family="Georgia, serif" font-size="34" font-weight="700" fill="#111111">Mar 4</text>
  <text x="390" y="298" font-family="Arial, sans-serif" font-size="15" fill="#4D4A43">Transcript, summary, top 3 loaded</text>

  <rect x="668" y="192" width="284" height="114" rx="18" fill="#FFFDF8" stroke="#1B1B1B" stroke-width="2.5"/>
  <text x="692" y="228" font-family="Arial, sans-serif" font-size="16" fill="#4D4A43">Mission Board</text>
  <text x="692" y="278" font-family="Georgia, serif" font-size="52" font-weight="700" fill="#111111">12</text>
  <text x="692" y="298" font-family="Arial, sans-serif" font-size="15" fill="#4D4A43">6 in progress, 2 blocked</text>

  <rect x="970" y="192" width="284" height="114" rx="18" fill="#FFFDF8" stroke="#1B1B1B" stroke-width="2.5"/>
  <text x="994" y="228" font-family="Arial, sans-serif" font-size="16" fill="#4D4A43">Wins This Month</text>
  <text x="994" y="278" font-family="Georgia, serif" font-size="52" font-weight="700" fill="#111111">4</text>
  <text x="994" y="298" font-family="Arial, sans-serif" font-size="15" fill="#4D4A43">Called out in sessions and pulse</text>

  <rect x="1272" y="192" width="264" height="114" rx="18" fill="#FFFDF8" stroke="#1B1B1B" stroke-width="2.5"/>
  <text x="1296" y="228" font-family="Arial, sans-serif" font-size="16" fill="#4D4A43">Risk Pulse</text>
  <text x="1296" y="278" font-family="Georgia, serif" font-size="34" font-weight="700" fill="#111111">2 urgent</text>
  <text x="1296" y="298" font-family="Arial, sans-serif" font-size="15" fill="#4D4A43">Retention + staffing friction</text>

  <rect x="64" y="332" width="414" height="704" rx="22" fill="#FCFAF4" stroke="#1B1B1B" stroke-width="3"/>
  <text x="92" y="372" font-family="Georgia, serif" font-size="28" font-weight="700" fill="#111111">Session Memory</text>
  <text x="92" y="396" font-family="Arial, sans-serif" font-size="16" fill="#4D4A43">Last call at the top. Older calls below. This is the relationship timeline.</text>

  <rect x="92" y="422" width="358" height="178" rx="16" fill="#FFFDF8" stroke="#1B1B1B" stroke-width="2"/>
  <text x="114" y="454" font-family="Arial, sans-serif" font-size="14" letter-spacing="1.5" fill="#4D4A43">LAST CALL</text>
  <text x="114" y="488" font-family="Georgia, serif" font-size="24" font-weight="700" fill="#111111">March 4 Coaching Call</text>
  <text x="114" y="516" font-family="Arial, sans-serif" font-size="15" fill="#4D4A43">Summary: owner committed to producer scorecard rollout, lead follow-up SLA, and weekly accountability huddle.</text>
  <rect x="114" y="540" width="102" height="32" rx="10" fill="#F0E8D8" stroke="#1B1B1B" stroke-width="1.5"/>
  <text x="136" y="561" font-family="Arial, sans-serif" font-size="14" font-weight="700" fill="#111111">Transcript</text>
  <rect x="226" y="540" width="118" height="32" rx="10" fill="#F0E8D8" stroke="#1B1B1B" stroke-width="1.5"/>
  <text x="251" y="561" font-family="Arial, sans-serif" font-size="14" font-weight="700" fill="#111111">Action Items</text>
  <rect x="354" y="540" width="76" height="32" rx="10" fill="#F0E8D8" stroke="#1B1B1B" stroke-width="1.5"/>
  <text x="378" y="561" font-family="Arial, sans-serif" font-size="14" font-weight="700" fill="#111111">Wins</text>

  <line x1="92" y1="624" x2="450" y2="624" stroke="#1B1B1B" stroke-width="2"/>
  <text x="92" y="654" font-family="Arial, sans-serif" font-size="14" letter-spacing="1.5" fill="#4D4A43">PAST CALLS</text>

  <rect x="92" y="674" width="358" height="86" rx="14" fill="#FFFDF8" stroke="#1B1B1B" stroke-width="2"/>
  <text x="114" y="708" font-family="Georgia, serif" font-size="21" font-weight="700" fill="#111111">February 6</text>
  <text x="114" y="734" font-family="Arial, sans-serif" font-size="15" fill="#4D4A43">Hiring tension, role clarity, and lead attribution problems surfaced.</text>

  <rect x="92" y="778" width="358" height="86" rx="14" fill="#FFFDF8" stroke="#1B1B1B" stroke-width="2"/>
  <text x="114" y="812" font-family="Georgia, serif" font-size="21" font-weight="700" fill="#111111">January 10</text>
  <text x="114" y="838" font-family="Arial, sans-serif" font-size="15" fill="#4D4A43">Mission board reset around sales process, scorecards, and producer standards.</text>

  <rect x="92" y="882" width="358" height="126" rx="14" fill="#EFE7D8" stroke="#1B1B1B" stroke-width="2"/>
  <text x="114" y="918" font-family="Georgia, serif" font-size="22" font-weight="700" fill="#111111">Design Intent</text>
  <text x="114" y="946" font-family="Arial, sans-serif" font-size="15" fill="#4D4A43">This column feels archival and trustworthy.</text>
  <text x="114" y="970" font-family="Arial, sans-serif" font-size="15" fill="#4D4A43">It answers: What happened? What did we say? What changed?</text>

  <rect x="502" y="332" width="628" height="704" rx="22" fill="#FCFAF4" stroke="#1B1B1B" stroke-width="3"/>
  <text x="530" y="372" font-family="Georgia, serif" font-size="28" font-weight="700" fill="#111111">Commitments + Mission Board</text>
  <text x="530" y="396" font-family="Arial, sans-serif" font-size="16" fill="#4D4A43">The center of gravity. What the owner promised, what is moving, and what must be reviewed next call.</text>

  <rect x="530" y="422" width="572" height="198" rx="16" fill="#FFFDF8" stroke="#1B1B1B" stroke-width="2"/>
  <text x="552" y="454" font-family="Arial, sans-serif" font-size="14" letter-spacing="1.5" fill="#4D4A43">TOP 3 FOR NEXT CALL</text>

  <rect x="552" y="476" width="528" height="34" rx="10" fill="#F0E8D8" stroke="#1B1B1B" stroke-width="1.5"/>
  <text x="568" y="498" font-family="Arial, sans-serif" font-size="15" fill="#111111">1. Launch producer scorecard with owner review on Mondays</text>
  <rect x="974" y="482" width="88" height="22" rx="8" fill="#111111"/>
  <text x="992" y="497" font-family="Arial, sans-serif" font-size="12" font-weight="700" fill="#FFFDF8">IN PROGRESS</text>

  <rect x="552" y="520" width="528" height="34" rx="10" fill="#F0E8D8" stroke="#1B1B1B" stroke-width="1.5"/>
  <text x="568" y="542" font-family="Arial, sans-serif" font-size="15" fill="#111111">2. Set a 5-minute lead follow-up SLA and prove it with screenshots</text>
  <rect x="988" y="526" width="74" height="22" rx="8" fill="#FFFDF8" stroke="#1B1B1B" stroke-width="1.5"/>
  <text x="1005" y="541" font-family="Arial, sans-serif" font-size="12" font-weight="700" fill="#111111">PROOF</text>

  <rect x="552" y="564" width="528" height="34" rx="10" fill="#F0E8D8" stroke="#1B1B1B" stroke-width="1.5"/>
  <text x="568" y="586" font-family="Arial, sans-serif" font-size="15" fill="#111111">3. Run the first weekly accountability huddle and capture takeaways</text>
  <rect x="996" y="570" width="66" height="22" rx="8" fill="#1B1B1B"/>
  <text x="1012" y="585" font-family="Arial, sans-serif" font-size="12" font-weight="700" fill="#FFFDF8">DONE</text>

  <line x1="530" y1="646" x2="1102" y2="646" stroke="#1B1B1B" stroke-width="2"/>
  <text x="530" y="678" font-family="Arial, sans-serif" font-size="14" letter-spacing="1.5" fill="#4D4A43">MISSION BOARD</text>

  <rect x="530" y="700" width="130" height="300" rx="16" fill="#FFFDF8" stroke="#1B1B1B" stroke-width="2"/>
  <text x="562" y="732" font-family="Georgia, serif" font-size="20" font-weight="700" fill="#111111">Backlog</text>
  <rect x="546" y="752" width="98" height="78" rx="12" fill="#F0E8D8" stroke="#1B1B1B" stroke-width="1.5"/>
  <text x="556" y="776" font-family="Arial, sans-serif" font-size="13" fill="#111111">Fix lead-source ownership</text>
  <rect x="546" y="842" width="98" height="78" rx="12" fill="#F0E8D8" stroke="#1B1B1B" stroke-width="1.5"/>
  <text x="556" y="866" font-family="Arial, sans-serif" font-size="13" fill="#111111">Rebuild role scorecards</text>

  <rect x="676" y="700" width="130" height="300" rx="16" fill="#FFFDF8" stroke="#1B1B1B" stroke-width="2"/>
  <text x="701" y="732" font-family="Georgia, serif" font-size="20" font-weight="700" fill="#111111">Active</text>
  <rect x="692" y="752" width="98" height="110" rx="12" fill="#F0E8D8" stroke="#1B1B1B" stroke-width="1.5"/>
  <text x="702" y="776" font-family="Arial, sans-serif" font-size="13" fill="#111111">Producer scorecard deployment</text>
  <rect x="692" y="874" width="98" height="92" rx="12" fill="#F0E8D8" stroke="#1B1B1B" stroke-width="1.5"/>
  <text x="702" y="898" font-family="Arial, sans-serif" font-size="13" fill="#111111">Lead follow-up SLA</text>

  <rect x="822" y="700" width="130" height="300" rx="16" fill="#FFFDF8" stroke="#1B1B1B" stroke-width="2"/>
  <text x="841" y="732" font-family="Georgia, serif" font-size="20" font-weight="700" fill="#111111">Before Next Call</text>
  <rect x="838" y="752" width="98" height="92" rx="12" fill="#F0E8D8" stroke="#1B1B1B" stroke-width="1.5"/>
  <text x="848" y="776" font-family="Arial, sans-serif" font-size="13" fill="#111111">Accountability huddle proof</text>

  <rect x="968" y="700" width="130" height="300" rx="16" fill="#FFFDF8" stroke="#1B1B1B" stroke-width="2"/>
  <text x="1005" y="732" font-family="Georgia, serif" font-size="20" font-weight="700" fill="#111111">Done</text>
  <rect x="984" y="752" width="98" height="78" rx="12" fill="#F0E8D8" stroke="#1B1B1B" stroke-width="1.5"/>
  <text x="994" y="776" font-family="Arial, sans-serif" font-size="13" fill="#111111">Weekly metrics reset</text>
  <rect x="984" y="842" width="98" height="78" rx="12" fill="#F0E8D8" stroke="#1B1B1B" stroke-width="1.5"/>
  <text x="994" y="866" font-family="Arial, sans-serif" font-size="13" fill="#111111">Call cadence scheduled</text>

  <rect x="1134" y="332" width="402" height="704" rx="22" fill="#111111" stroke="#1B1B1B" stroke-width="3"/>
  <text x="1162" y="372" font-family="Georgia, serif" font-size="28" font-weight="700" fill="#FFFDF8">AI Mastermind</text>
  <text x="1162" y="396" font-family="Arial, sans-serif" font-size="16" fill="#D7D2C6">A grounded advisory panel trained on this client's own call history and commitments.</text>

  <rect x="1162" y="424" width="346" height="138" rx="16" fill="#1E1E1E" stroke="#FFFDF8" stroke-width="1.8"/>
  <text x="1182" y="454" font-family="Arial, sans-serif" font-size="14" letter-spacing="1.5" fill="#CFC8BB">PROMPT EXAMPLE</text>
  <text x="1182" y="486" font-family="Arial, sans-serif" font-size="16" fill="#FFFDF8">"Based on the last three calls, what is the owner still avoiding?"</text>
  <text x="1182" y="520" font-family="Arial, sans-serif" font-size="14" fill="#CFC8BB">Answer should cite sessions, open commitments, and unresolved issues.</text>

  <rect x="1162" y="586" width="346" height="170" rx="16" fill="#F0E8D8" stroke="#FFFDF8" stroke-width="1.8"/>
  <text x="1182" y="620" font-family="Georgia, serif" font-size="22" font-weight="700" fill="#111111">Wins + Issues</text>
  <text x="1182" y="652" font-family="Arial, sans-serif" font-size="15" fill="#111111">Wins</text>
  <text x="1182" y="676" font-family="Arial, sans-serif" font-size="14" fill="#4D4A43">- first manager accountability huddle ran</text>
  <text x="1182" y="698" font-family="Arial, sans-serif" font-size="14" fill="#4D4A43">- quote handling process is cleaner</text>
  <text x="1182" y="726" font-family="Arial, sans-serif" font-size="15" fill="#111111">Current issues</text>
  <text x="1182" y="748" font-family="Arial, sans-serif" font-size="14" fill="#4D4A43">- inconsistent lead response proof</text>

  <rect x="1162" y="780" width="346" height="172" rx="16" fill="#1E1E1E" stroke="#FFFDF8" stroke-width="1.8"/>
  <text x="1182" y="814" font-family="Georgia, serif" font-size="22" font-weight="700" fill="#FFFDF8">Business Pulse</text>
  <text x="1182" y="846" font-family="Arial, sans-serif" font-size="14" fill="#D7D2C6">Monthly snapshot moves here over time.</text>
  <rect x="1182" y="868" width="94" height="34" rx="10" fill="#FFFDF8"/>
  <text x="1204" y="890" font-family="Arial, sans-serif" font-size="14" font-weight="700" fill="#111111">Metrics</text>
  <rect x="1288" y="868" width="94" height="34" rx="10" fill="#FFFDF8"/>
  <text x="1318" y="890" font-family="Arial, sans-serif" font-size="14" font-weight="700" fill="#111111">Wins</text>
  <rect x="1394" y="868" width="94" height="34" rx="10" fill="#FFFDF8"/>
  <text x="1418" y="890" font-family="Arial, sans-serif" font-size="14" font-weight="700" fill="#111111">Focus</text>
  <text x="1182" y="932" font-family="Arial, sans-serif" font-size="14" fill="#D7D2C6">This area replaces the separate monthly form over time.</text>

  <text x="64" y="1062" font-family="Arial, sans-serif" font-size="14" fill="#4D4A43">Wireframe intent: archival left, execution center, advisory right.</text>
</svg>
